<svg xmlns="http://www.w3.org/2000/svg" width="25.493" height="27.765" viewBox="0 0 25.493 27.765"><defs><style>.a{fill:rgba(183,183,183,0);}.b,.d{fill:#fff;}.b{fill-rule:evenodd;}.c{fill:#ff6b6b;}.d{font-size:6px;font-family:ArialMT, Arial;}</style></defs><path class="a" d="M0,0H25.493V25.631H0Z" transform="translate(0 2.134)"/><g transform="translate(0 3.818)"><path class="b" d="M19.7,18.4H13.126a2.629,2.629,0,0,1-5.258,0H1.295a1.263,1.263,0,0,1-1.183-.92,1.4,1.4,0,0,1,.394-1.446,5.292,5.292,0,0,0,2.1-4.207V7.888a7.888,7.888,0,0,1,15.775,0v3.944a5.292,5.292,0,0,0,2.1,4.207,1.245,1.245,0,0,1,.394,1.446A1.263,1.263,0,0,1,19.7,18.4Z" transform="translate(-0.063)"/></g><ellipse class="c" cx="4.864" cy="4.864" rx="4.864" ry="4.864" transform="translate(12.515 0)"/><text class="d" transform="translate(15.314 6.497)"><tspan x="0" y="0">1</tspan></text></svg>