<svg xmlns="http://www.w3.org/2000/svg" width="32" height="32" viewBox="0 0 32 32"><defs><style>.a{fill:rgba(203,203,203,0);}.b{fill:#fff;}</style></defs><g transform="translate(0)"><rect class="a" width="32" height="32" transform="translate(0)"/><g transform="translate(1.735 1)"><g transform="translate(0 0)"><g transform="translate(0 7.355)"><path class="b" d="M24.335,18.383c-.744.015-1.475,0-2.212,0a.131.131,0,0,1-.146-.1c-.062-.166-.136-.327-.2-.5-.409-.992-.784-2.016-1.24-3a3.577,3.577,0,0,0-3.486-2.257h-6.9c-.967,0-1.937-.022-2.9.032a3.238,3.238,0,0,0-2.333,1.18,5.666,5.666,0,0,0-.853,1.488c-.436,1.009-.86,2.021-1.287,3.035a.151.151,0,0,1-.166.109H.389a.377.377,0,0,0-.412.5c.1.434.231.863.367,1.289a.526.526,0,0,0,.548.36H1.7a.964.964,0,0,1,.1,0c-.017.045-.027.079-.04.112-.223.6-.454,1.185-.679,1.778a.7.7,0,0,0-.045.248v7.263a1.081,1.081,0,0,0,.084.409,1.123,1.123,0,0,0,1.071.756H4.758a1.113,1.113,0,0,0,1.1-.917,3.72,3.72,0,0,0,.045-.665v-1.8H18.835v2.043A1.2,1.2,0,0,0,20.174,31.1H22.24a2.775,2.775,0,0,0,.357-.03,1.161,1.161,0,0,0,.955-1.136c.012-2.368,0-4.736,0-7.1a2.321,2.321,0,0,0-.087-.6c-.094-.345-.213-.684-.327-1.024-.074-.226-.159-.449-.248-.672h.92a.536.536,0,0,0,.57-.384c.129-.414.248-.831.355-1.24a.382.382,0,0,0-.4-.523ZM5.209,24.746h-1.9a.5.5,0,0,1-.5-.5V24.1a.431.431,0,0,1,.5-.439l1.277.166a2.231,2.231,0,0,1,.922.635C5.621,24.617,5.485,24.746,5.209,24.746Zm10.3-.02a1.24,1.24,0,0,1-.2.017H9.477a.615.615,0,0,1-.5-.186.511.511,0,0,1,.273-.846,1.148,1.148,0,0,1,.248-.027h5.825a1.01,1.01,0,0,1,.211.022.5.5,0,0,1,.431.526.521.521,0,0,1-.459.493ZM5.371,19.519a6.757,6.757,0,0,0-1.8.186c.149-.283.305-.56.444-.846.451-.93.885-1.865,1.344-2.79a13.638,13.638,0,0,1,.687-1.2A1.671,1.671,0,0,1,7.471,14.1h9.557a2.547,2.547,0,0,1,.952.159,1.691,1.691,0,0,1,.635.449,5.061,5.061,0,0,1,.823,1.359c.546,1.208,1.1,2.41,1.647,3.615l.027.067a4.96,4.96,0,0,0-.662-.161c-.5-.042-1.009-.057-1.513-.079H5.361Zm16.2,4.768a.5.5,0,0,1-.5.5H19.16c-.278,0-.409-.129-.293-.285a2.254,2.254,0,0,1,.922-.635l1.277-.166a.431.431,0,0,1,.5.439v.144Z" transform="translate(0.043 -12.532)"/></g><g transform="translate(20.265)"><g transform="translate(0)"><rect class="b" width="1" height="9" rx="0.5" transform="translate(4)"/><rect class="b" width="1" height="9" rx="0.5" transform="translate(9 4) rotate(90)"/></g></g></g></g></g></svg>