<svg xmlns="http://www.w3.org/2000/svg" width="24" height="23" viewBox="0 0 24 23"><defs><style>.a{fill:rgba(219,219,219,0);}.b{fill:#fff;}</style></defs><g transform="translate(0.053 -0.466)"><rect class="a" width="24" height="23" transform="translate(-0.053 0.466)"/><g transform="translate(3.895 1.285)"><g transform="translate(0)"><path class="b" d="M15.707,21.2H.654A.667.667,0,0,1,0,20.522V.678A.667.667,0,0,1,.654,0H11.842V3.864a.807.807,0,0,0,.792.821h3.728V20.522A.667.667,0,0,1,15.707,21.2ZM2.949,13.738H3.78V12.562h.632A1.369,1.369,0,0,0,5.94,11.185v-.011A1.315,1.315,0,0,0,4.493,9.82H2.949ZM3.78,11.8V10.6h.643c.416,0,.675.207.675.593V11.2a.594.594,0,0,1-.659.593Zm2.775,1.942H8.03a1.924,1.924,0,0,0,2.009-1.959v-.011A1.915,1.915,0,0,0,8.03,9.82H6.556ZM8.03,10.6a1.106,1.106,0,0,1,1.139,1.181v.011A1.1,1.1,0,0,1,8.03,12.96H7.387V10.6Zm2.748,3.14h.831V12.221h1.8v-.784h-1.8V10.6h2.046V9.82H10.778ZM12.271,3.562V0l4.09,4.24H12.925A.667.667,0,0,1,12.271,3.562Z" transform="translate(0 0)"/></g></g></g></svg>