<svg xmlns="http://www.w3.org/2000/svg" width="32" height="32" viewBox="0 0 32 32"><defs><style>.a{fill:rgba(255,255,255,0);}.b{fill:#fff;}</style></defs><g transform="translate(-191 -96)"><rect class="a" width="32" height="32" transform="translate(191 96)"/><g transform="translate(193.15 98.436)"><g transform="translate(0 3)"><g transform="translate(0)"><path class="b" d="M25.866,60.729l-.586-.621-2.057-5.546A2.413,2.413,0,0,0,20.976,53H6.281a2.4,2.4,0,0,0-2.247,1.563L2.006,60.04l-.845.782A3.3,3.3,0,0,0,0,63.333v8.08A2.4,2.4,0,0,0,2.4,73.8H3.919a2.4,2.4,0,0,0,2.4-2.391V70.24H20.573v1.172a2.4,2.4,0,0,0,2.4,2.391h1.517a2.4,2.4,0,0,0,2.4-2.391V63.12A3.332,3.332,0,0,0,25.866,60.729ZM5.115,54.954a1.243,1.243,0,0,1,1.167-.8h14.7a1.251,1.251,0,0,1,1.167.8l1.793,4.827H22.6a3.942,3.942,0,0,0-7.8,0H3.322ZM21.43,59.781H15.964a2.791,2.791,0,0,1,5.465,0ZM5.172,71.413a1.25,1.25,0,0,1-1.253,1.241H2.4a1.25,1.25,0,0,1-1.253-1.241V69.907A2.334,2.334,0,0,0,2.4,70.24h2.77Zm20.573,0a1.25,1.25,0,0,1-1.253,1.241H22.976a1.253,1.253,0,0,1-1.253-1.241V70.24h2.77a2.334,2.334,0,0,0,1.253-.333Zm-1.253-2.322H2.4a1.24,1.24,0,0,1-1.253-1.23V63.333a2.158,2.158,0,0,1,.764-1.644l.023-.023.782-.736H24.481l.552.592c.006.012.023.017.029.029a2.166,2.166,0,0,1,.678,1.569v4.741h.006A1.244,1.244,0,0,1,24.493,69.091Z" transform="translate(0 -53)"/></g><g transform="translate(2.701 10.229)"><g transform="translate(0 0)"><path class="b" d="M51.885,231h-4.31a.576.576,0,0,0-.575.575v2.988a.576.576,0,0,0,.575.575h4.31a.576.576,0,0,0,.575-.575v-2.988A.576.576,0,0,0,51.885,231Zm-.575,2.988H48.149v-1.839H51.31Z" transform="translate(-47 -231)"/></g></g><g transform="translate(18.734 10.229)"><g transform="translate(0 0)"><path class="b" d="M330.885,231h-4.31a.576.576,0,0,0-.575.575v2.988a.576.576,0,0,0,.575.575h4.31a.576.576,0,0,0,.575-.575v-2.988A.576.576,0,0,0,330.885,231Zm-.575,2.988h-3.161v-1.839h3.161Z" transform="translate(-326 -231)"/></g></g><g transform="translate(10.097 12.643)"><path class="b" d="M181.826,273h-5.551a.575.575,0,1,0,0,1.149h5.551a.575.575,0,1,0,0-1.149Z" transform="translate(-175.7 -273)"/></g><g transform="translate(10.097 10.861)"><path class="b" d="M181.826,242h-5.551a.575.575,0,1,0,0,1.149h5.551a.575.575,0,1,0,0-1.149Z" transform="translate(-175.7 -242)"/></g></g></g></g></svg>