<svg xmlns="http://www.w3.org/2000/svg" width="32" height="32" viewBox="0 0 32 32"><defs><style>.a{fill:rgba(255,255,255,0);}.b{fill:#fff;}</style></defs><g transform="translate(-1107 -94)"><rect class="a" width="32" height="32" transform="translate(1107 94)"/><path class="b" d="M18.07,3.07a15.151,15.151,0,0,0-15,15A14.069,14.069,0,0,0,4.2,23.762L3.309,30.6A1.32,1.32,0,0,0,4.8,32.094l6.147-.822a15,15,0,0,0,22.12-13.2,15.151,15.151,0,0,0-15-15ZM10.581,20.234a2.164,2.164,0,1,1,2.164-2.164A2.164,2.164,0,0,1,10.581,20.234Zm7.489,0a2.164,2.164,0,1,1,2.164-2.164A2.164,2.164,0,0,1,18.07,20.234Zm7.489,0a2.164,2.164,0,1,1,2.164-2.164A2.164,2.164,0,0,1,25.559,20.234Zm0,0" transform="translate(1105 91.93)"/></g></svg>
